<?xml version="1.0" encoding="utf-8"?>
<!-- Generator: Adobe Illustrator 16.0.5, SVG Export Plug-In . SVG Version: 6.00 Build 0)  -->
<!DOCTYPE svg PUBLIC "-//W3C//DTD SVG 1.1//EN" "http://www.w3.org/Graphics/SVG/1.1/DTD/svg11.dtd">
<svg version="1.1" xmlns="http://www.w3.org/2000/svg" xmlns:xlink="http://www.w3.org/1999/xlink" x="0px" y="0px" width="792px"
	 height="1008px" viewBox="0 0 792 1008" enable-background="new 0 0 792 1008" xml:space="preserve">
<g id="space">
	<rect id="space_1_" x="-18" y="-18" fill="#0E2430" width="828" height="1044"/>
	<g id="planets_2">
		<circle fill="#FC3A51" cx="809.801" cy="33.245" r="62.248"/>
		<circle fill="#FC3A51" cx="682.802" cy="82.245" r="30.749"/>
		<circle fill="#FC3A51" cx="725.802" cy="202.245" r="57.747"/>
	</g>
	<g id="planets_1">
		<circle fill="#FC3A51" cx="221.574" cy="618.033" r="21.54"/>
		<circle fill="#FC3A51" cx="177.627" cy="634.989" r="10.64"/>
		<circle fill="#FC3A51" cx="192.507" cy="676.514" r="19.983"/>
	</g>
	<g id="ship_1_">
		<g id="back">
			<line fill="none" stroke="#F5B349" stroke-width="16" stroke-miterlimit="10" x1="59" y1="4" x2="59" y2="251"/>
			<line fill="none" stroke="#F5B349" stroke-width="16" stroke-miterlimit="10" x1="183" y1="126" x2="-66" y2="126"/>
			<g>
				<path fill="#F5B349" d="M58.6,9.781c31.057,0,60.255,12.094,82.216,34.055c21.961,21.961,34.056,51.159,34.056,82.216
					s-12.094,60.256-34.056,82.217c-21.96,21.961-51.159,34.055-82.216,34.055s-60.255-12.094-82.216-34.055
					s-34.055-51.16-34.055-82.217s12.094-60.255,34.055-82.216S27.542,9.781,58.6,9.781 M58.6-6.219
					c-73.051,0-132.271,59.22-132.271,132.271c0,73.052,59.22,132.272,132.271,132.272c73.051,0,132.271-59.22,132.271-132.272
					C190.871,53.001,131.65-6.219,58.6-6.219L58.6-6.219z"/>
			</g>
			<g>
				<path fill="#F5B349" d="M58.6,148.586c-12.425,0-22.533-10.108-22.533-22.534s10.108-22.534,22.533-22.534
					s22.533,10.109,22.533,22.534S71.024,148.586,58.6,148.586z"/>
				<path fill="#0E2430" d="M58.6,104.018c12.168,0,22.033,9.866,22.033,22.034s-9.865,22.034-22.033,22.034
					s-22.033-9.865-22.033-22.034S46.432,104.018,58.6,104.018 M58.6,103.018c-12.701,0-23.033,10.333-23.033,23.034
					c0,12.701,10.333,23.034,23.033,23.034s23.033-10.333,23.033-23.034C81.633,113.351,71.3,103.018,58.6,103.018L58.6,103.018z"/>
			</g>
		</g>
		
			<line id="conn" fill="none" stroke="#E8D5B9" stroke-width="30" stroke-linecap="round" stroke-miterlimit="10" x1="110.905" y1="99.028" x2="58.6" y2="126.405"/>
		<g id="front">
			<g>
				<path fill="#E8D5B9" d="M110.905-17.244c31.057,0,60.256,12.094,82.216,34.055c21.961,21.961,34.055,51.159,34.055,82.217
					c0,31.057-12.094,60.255-34.055,82.216c-21.96,21.961-51.159,34.055-82.216,34.055s-60.255-12.094-82.216-34.055
					S-5.366,130.085-5.366,99.028S6.729,38.772,28.689,16.811S79.848-17.244,110.905-17.244 M110.905-33.244
					c-73.051,0-132.271,59.22-132.271,132.272c0,73.051,59.22,132.271,132.271,132.271c73.052,0,132.271-59.22,132.271-132.271
					C243.177,25.976,183.957-33.244,110.905-33.244L110.905-33.244z"/>
			</g>
			<line fill="none" stroke="#E8D5B9" stroke-width="16" stroke-miterlimit="10" x1="111" y1="-23" x2="111" y2="224"/>
			<line fill="none" stroke="#E8D5B9" stroke-width="16" stroke-miterlimit="10" x1="235" y1="100" x2="-13" y2="100"/>
			<g>
				<path fill="#E8D5B9" d="M110.905,121.561c-12.425,0-22.533-10.108-22.533-22.533c0-12.426,10.108-22.535,22.533-22.535
					c12.425,0,22.534,10.109,22.534,22.535C133.439,111.453,123.331,121.561,110.905,121.561z"/>
				<path fill="#0E2430" d="M110.905,76.993c12.168,0,22.034,9.866,22.034,22.035c0,12.168-9.866,22.033-22.034,22.033
					c-12.167,0-22.033-9.865-22.033-22.033C88.872,86.859,98.738,76.993,110.905,76.993 M110.905,75.993
					c-12.701,0-23.033,10.333-23.033,23.035c0,12.701,10.333,23.033,23.033,23.033c12.701,0,23.034-10.333,23.034-23.033
					C133.939,86.327,123.606,75.993,110.905,75.993L110.905,75.993z"/>
			</g>
		</g>
	</g>
	<g id="man">
		<path fill="#F5B349" stroke="#0E2430" stroke-miterlimit="10" d="M518.858,410.406l-7.853-3.459
			c-0.542-0.239-1.365,0.676-1.839,2.042l-8.293,23.91c-0.307,0.88-0.389,1.73-0.265,2.289c-0.157,0.364,0.035,1.008,0.493,1.561
			l9.291,11.209c0.53,0.639,1.214,0.911,1.528,0.604l4.55-4.428c0.314-0.306,0.138-1.071-0.393-1.713l-5.07-6.118l7.974-22.991
			C519.455,411.946,519.4,410.645,518.858,410.406z"/>
		<path fill="#F5B349" stroke="#0E2430" stroke-miterlimit="10" d="M482.402,416.066c-2.264-0.796-3.69-2.605-3.186-4.038
			l7.311-20.767c0.504-1.433,2.749-1.951,5.012-1.154l39.621,13.946c2.264,0.798,3.69,2.605,3.185,4.04l-7.311,20.767
			c-0.502,1.435-2.747,1.949-5.011,1.153L482.402,416.066z"/>
		<path fill="#F5B349" stroke="#0E2430" stroke-miterlimit="10" d="M492.036,411.212l-3.391-9.133
			c-0.235-0.631-1.559-0.72-2.958-0.202l-20.158,7.485l-8.3-7.907c-0.741-0.705-1.645-0.962-2.016-0.574l-5.372,5.641
			c-0.37,0.39-0.07,1.279,0.673,1.985l10.66,10.158l1.307,3.52c0.236,0.629,1.56,0.721,2.958,0.202l24.487-9.093
			C491.325,412.775,492.271,411.842,492.036,411.212z"/>
		<path fill="#F5B349" stroke="#0E2430" stroke-miterlimit="10" d="M516.667,416.791l0.005-8.58
			c0.002-0.593-1.166-0.978-2.607-0.862l-25.225,2.032c-0.932,0.076-1.741,0.34-2.203,0.682c-0.396,0.001-0.91,0.436-1.23,1.077
			l-6.521,13.017c-0.373,0.742-0.346,1.479,0.061,1.644l5.887,2.382c0.404,0.164,1.035-0.305,1.408-1.049l3.56-7.104l24.255-1.957
			C515.499,417.958,516.666,417.383,516.667,416.791z"/>
		<path fill="#F5B349" stroke="#0E2430" stroke-miterlimit="10" d="M492.743,400.296l-1.821-9.57
			c-0.124-0.66-1.416-0.97-2.881-0.691l-21.124,4.019l-6.866-9.181c-0.613-0.82-1.46-1.224-1.889-0.901l-6.241,4.667
			c-0.43,0.322-0.281,1.248,0.332,2.068l8.819,11.792l0.701,3.69c0.126,0.661,1.416,0.971,2.883,0.692l25.66-4.881
			C491.782,401.72,492.869,400.958,492.743,400.296z"/>
		<circle fill="#F5B349" stroke="#0E2430" stroke-miterlimit="10" cx="544.319" cy="423.379" r="15.207"/>
		<path fill="#E8D5B9" stroke="#0E2430" stroke-miterlimit="10" d="M556.063,433.044l-3.538-11.864
			c-0.854,0.921-1.759,1.827-2.717,2.709c-2.661,2.453-5.464,4.501-8.258,6.108l2.563,8.587
			C548.725,438.646,553.14,436.597,556.063,433.044z"/>
		
			<ellipse transform="matrix(0.6555 0.7552 -0.7552 0.6555 515.8131 -235.4884)" fill="#E8D5B9" stroke="#0E2430" stroke-miterlimit="10" cx="516.004" cy="447.593" rx="3.585" ry="5.095"/>
		
			<ellipse transform="matrix(-0.2607 0.9654 -0.9654 -0.2607 1021.6074 75.8374)" fill="#E8D5B9" stroke="#0E2430" stroke-miterlimit="10" cx="481.766" cy="429.091" rx="3.585" ry="5.095"/>
		<path fill="#E8D5B9" stroke="#0E2430" stroke-miterlimit="10" d="M447.621,401.776c2.459-2.722,5.645-3.85,7.112-2.523
			c1.469,1.33,0.665,4.611-1.796,7.334c-2.459,2.719-5.643,3.849-7.113,2.52C444.355,407.779,445.16,404.496,447.621,401.776z"/>
		<path fill="#E8D5B9" stroke="#0E2430" stroke-miterlimit="10" d="M451.044,384.127c2.462-2.72,5.646-3.849,7.114-2.521
			s0.665,4.611-1.797,7.332c-2.457,2.719-5.644,3.849-7.112,2.519C447.782,390.13,448.586,386.848,451.044,384.127z"/>
		<path fill="#0E2430" stroke="#E8D5B9" stroke-miterlimit="10" d="M557.516,425.031c-0.702,0.21-1.421-0.119-1.604-0.731
			c-0.186-0.615,0.238-1.282,0.939-1.492c0.705-0.21,1.426,0.117,1.607,0.731C558.643,424.154,558.219,424.821,557.516,425.031z"/>
	</g>
</g>
<g id="fg">
	<g id="moon">
		<ellipse fill="#F5B349" cx="396" cy="952.318" rx="582" ry="282.378"/>
		<ellipse fill="#E8D5B7" cx="446" cy="934.945" rx="519.338" ry="251.976"/>
	</g>
	<g id="spots_2">
		<ellipse fill="#F5B349" cx="174" cy="914" rx="43" ry="21"/>
		<ellipse fill="#F5B349" cx="238" cy="872" rx="43" ry="21"/>
	</g>
	<g id="spots_1">
		<ellipse fill="#F5B349" cx="588" cy="816" rx="43" ry="21"/>
		<ellipse fill="#F5B349" cx="652" cy="774" rx="43" ry="21"/>
		<ellipse fill="#F5B349" cx="695" cy="837" rx="43" ry="21"/>
	</g>
</g>
</svg>
