<?xml version="1.0" encoding="utf-8"?>
<!-- Generator: Adobe Illustrator 16.0.5, SVG Export Plug-In . SVG Version: 6.00 Build 0)  -->
<!DOCTYPE svg PUBLIC "-//W3C//DTD SVG 1.1//EN" "http://www.w3.org/Graphics/SVG/1.1/DTD/svg11.dtd">
<svg version="1.1" id="Layer_1" xmlns="http://www.w3.org/2000/svg" xmlns:xlink="http://www.w3.org/1999/xlink" x="0px" y="0px"
	 width="500px" height="500px" viewBox="0 0 500 500" enable-background="new 0 0 500 500" xml:space="preserve">
<rect x="-131" y="81" fill="#E7EDEA" width="42" height="58"/>
<rect x="-131" y="139" fill="#FFC52C" width="42" height="58"/>
<rect x="-131" y="197" fill="#FB0C06" width="42" height="58"/>
<rect x="-131" y="255" fill="#030D4F" width="42" height="58"/>
<rect x="-131" y="313" fill="#CEECEF" width="42" height="58"/>
<g>
	<linearGradient id="SVGID_1_" gradientUnits="userSpaceOnUse" x1="127.4805" y1="38.2544" x2="372.5215" y2="462.6779">
		<stop  offset="0" style="stop-color:#CEECEF"/>
		<stop  offset="0.199" style="stop-color:#CEECEF"/>
		<stop  offset="0.2317" style="stop-color:#CEECEF"/>
		<stop  offset="0.5339" style="stop-color:#CEECED"/>
		<stop  offset="0.6427" style="stop-color:#D0EAE6"/>
		<stop  offset="0.7203" style="stop-color:#D3E8DB"/>
		<stop  offset="0.7831" style="stop-color:#D7E5CA"/>
		<stop  offset="0.8368" style="stop-color:#DDE0B4"/>
		<stop  offset="0.8844" style="stop-color:#E4DB98"/>
		<stop  offset="0.9275" style="stop-color:#ECD478"/>
		<stop  offset="0.9657" style="stop-color:#F5CD54"/>
		<stop  offset="1" style="stop-color:#FFC52C"/>
	</linearGradient>
	<path fill="url(#SVGID_1_)" d="M495,250.465c0,135.312-109.689,245-244.996,245C114.692,495.465,5,385.776,5,250.465
		c0-135.31,109.692-245,245.004-245C385.311,5.465,495,115.155,495,250.465z"/>
	<linearGradient id="SVGID_2_" gradientUnits="userSpaceOnUse" x1="372.5215" y1="462.6787" x2="127.4804" y2="38.2552">
		<stop  offset="0" style="stop-color:#E7EDEA"/>
		<stop  offset="0.0295" style="stop-color:#EACECA"/>
		<stop  offset="0.0829" style="stop-color:#EE9B97"/>
		<stop  offset="0.1371" style="stop-color:#F26F6A"/>
		<stop  offset="0.1914" style="stop-color:#F54B46"/>
		<stop  offset="0.2456" style="stop-color:#F8302A"/>
		<stop  offset="0.2998" style="stop-color:#FA1C16"/>
		<stop  offset="0.3541" style="stop-color:#FB100A"/>
		<stop  offset="0.4085" style="stop-color:#FB0C06"/>
		<stop  offset="0.4561" style="stop-color:#FB1D0A"/>
		<stop  offset="0.5506" style="stop-color:#FC4A13"/>
		<stop  offset="0.6819" style="stop-color:#FE9221"/>
		<stop  offset="0.7695" style="stop-color:#FFC52C"/>
	</linearGradient>
	<path fill="url(#SVGID_2_)" d="M250.004,10.465c32.401,0,63.831,6.345,93.415,18.858c28.578,12.087,54.245,29.393,76.287,51.436
		c22.043,22.043,39.349,47.71,51.436,76.289C483.655,186.633,490,218.063,490,250.465c0,32.402-6.345,63.833-18.858,93.418
		c-12.087,28.578-29.393,54.246-51.436,76.288c-22.042,22.043-47.709,39.349-76.287,51.436
		c-29.584,12.514-61.014,18.858-93.415,18.858c-32.402,0-63.833-6.345-93.418-18.858c-28.579-12.087-54.247-29.393-76.29-51.436
		c-22.043-22.043-39.349-47.71-51.437-76.288C16.345,314.298,10,282.867,10,250.465c0-32.402,6.345-63.832,18.859-93.417
		c12.088-28.579,29.394-54.246,51.437-76.289c22.043-22.043,47.711-39.348,76.29-51.436
		C186.171,16.81,217.602,10.465,250.004,10.465 M250.004,5.465C114.692,5.465,5,115.155,5,250.465
		c0,135.312,109.692,245,245.004,245c135.307,0,244.996-109.688,244.996-245C495,115.155,385.311,5.465,250.004,5.465L250.004,5.465
		z"/>
</g>
<linearGradient id="SVGID_3_" gradientUnits="userSpaceOnUse" x1="151.8721" y1="174.9204" x2="293.8223" y2="420.7854" gradientTransform="matrix(-1 0 0 -1 500 500.8789)">
	<stop  offset="0" style="stop-color:#CEECEF"/>
	<stop  offset="0.0063" style="stop-color:#CCEAED"/>
	<stop  offset="0.2162" style="stop-color:#90A8BE"/>
	<stop  offset="0.4156" style="stop-color:#5E7096"/>
	<stop  offset="0.5991" style="stop-color:#364578"/>
	<stop  offset="0.7634" style="stop-color:#1A2761"/>
	<stop  offset="0.9026" style="stop-color:#091454"/>
	<stop  offset="1" style="stop-color:#030D4F"/>
</linearGradient>
<linearGradient id="SVGID_4_" gradientUnits="userSpaceOnUse" x1="137.6626" y1="248.7749" x2="362.3369" y2="248.7749" gradientTransform="matrix(-1 0 0 -1 500 500.8789)">
	<stop  offset="0" style="stop-color:#FB0C06"/>
	<stop  offset="0.0242" style="stop-color:#F62520"/>
	<stop  offset="0.0751" style="stop-color:#ED5350"/>
	<stop  offset="0.129" style="stop-color:#E47C7B"/>
	<stop  offset="0.1848" style="stop-color:#DE9F9F"/>
	<stop  offset="0.2432" style="stop-color:#D8BBBC"/>
	<stop  offset="0.3049" style="stop-color:#D4D1D2"/>
	<stop  offset="0.3716" style="stop-color:#D0E0E3"/>
	<stop  offset="0.4467" style="stop-color:#CFE9EC"/>
	<stop  offset="0.5481" style="stop-color:#CEECEF"/>
	<stop  offset="0.7695" style="stop-color:#FFC52C"/>
</linearGradient>
<polygon fill="url(#SVGID_3_)" stroke="url(#SVGID_4_)" stroke-width="5" stroke-miterlimit="10" points="358.611,117.5 
	250,382.613 141.388,117.5 "/>
</svg>
