<?xml version="1.0" encoding="utf-8"?>
<!-- Generator: Adobe Illustrator 16.0.5, SVG Export Plug-In . SVG Version: 6.00 Build 0)  -->
<!DOCTYPE svg PUBLIC "-//W3C//DTD SVG 1.1//EN" "http://www.w3.org/Graphics/SVG/1.1/DTD/svg11.dtd">
<svg version="1.1" xmlns="http://www.w3.org/2000/svg" xmlns:xlink="http://www.w3.org/1999/xlink" x="0px" y="0px" width="792px"
	 height="1008px" viewBox="0 0 792 1008" enable-background="new 0 0 792 1008" xml:space="preserve">
<g id="sky">
	<g id="sky-bg">
		<rect x="-18" y="504" fill="#C06C84" width="828" height="36"/>
		<rect x="-18" y="540" fill="#C06C84" width="828" height="36"/>
		<rect x="-18" y="468" fill="#C06C84" width="828" height="36"/>
		<rect x="-18" y="432" fill="#F67280" width="828" height="36"/>
		<rect x="-18" y="360" fill="#C06C84" width="828" height="36"/>
		<rect x="-18" y="396" fill="#C06C84" width="828" height="36"/>
		<rect x="-18" y="36" fill="#F8B195" width="828" height="36"/>
		<rect x="-18" y="72" fill="#F67280" width="828" height="36"/>
		<rect x="-18" y="108" fill="#F67280" width="828" height="36"/>
		<rect x="-18" y="144" fill="#F8B195" width="828" height="36"/>
		<rect x="-18" y="180" fill="#F67280" width="828" height="36"/>
		<rect x="-18" y="216" fill="#F67280" width="828" height="36"/>
		<rect x="-18" y="252" fill="#F67280" width="828" height="36"/>
		<rect x="-18" y="288" fill="#C06C84" width="828" height="36"/>
		<rect x="-18" y="324" fill="#F67280" width="828" height="36"/>
		<rect x="-18" y="-18" fill="#F8B195" width="828" height="54"/>
	</g>
	<circle id="sun" fill="#F67280" stroke="#C06C84" stroke-miterlimit="10" cx="264" cy="522" r="102"/>
	<g id="clouds">
		<path fill="#F8B195" stroke="#C06C84" stroke-miterlimit="10" d="M720.84,348.16C717.48,337.072,707.185,329,695,329
			c-2.746,0-5.395,0.413-7.891,1.175C682.162,323.976,674.547,320,666,320c-14.912,0-27,12.088-27,27c-14.912,0-27,12.088-27,27
			s12.088,27,27,27c7.41,0,14.121-2.987,19-7.82c4.879,4.833,11.59,7.82,19,7.82c6.916,0,13.223-2.604,18-6.881
			c4.777,4.277,11.084,6.881,18,6.881c14.912,0,27-12.088,27-27C740,361.815,731.928,351.52,720.84,348.16z"/>
		<path fill="#F8B195" stroke="#F67280" stroke-miterlimit="10" d="M250.979,228.013c-6.666-22.002-27.097-38.021-51.276-38.021
			c-5.449,0-10.705,0.82-15.658,2.331c-9.817-12.301-24.929-20.19-41.889-20.19c-29.591,0-53.578,23.987-53.578,53.578
			C58.987,225.711,35,249.698,35,279.289s23.987,53.578,53.578,53.578c14.705,0,28.021-5.928,37.703-15.519
			c9.682,9.591,22.999,15.519,37.703,15.519c13.724,0,26.239-5.167,35.719-13.654c9.48,8.488,21.995,13.654,35.719,13.654
			c29.591,0,53.578-23.987,53.578-53.578C289,255.11,272.981,234.679,250.979,228.013z"/>
		<path fill="#F8B195" stroke="#6C5B7B" stroke-miterlimit="10" d="M702,75c0,18.777,15.223,34,34,34
			c10.418,0,19.736-4.69,25.974-12.07c7.589,5.521,16.924,8.786,27.026,8.786c25.405,0,46-20.595,46-46
			c0-19.403-12.02-35.988-29.014-42.748c0.332-1.772,0.514-3.599,0.514-5.468C806.5-4.793,793.293-18,777-18
			c-8.309,0-15.811,3.44-21.172,8.968C753.322-9.662,750.701-10,748-10c-17.673,0-32,14.326-32,32c0,8.123,3.032,15.534,8.02,21.177
			C711.154,48.023,702,60.439,702,75z"/>
	</g>
	<g id="birds">
		<path fill="#F8B195" stroke="#6C5B7B" stroke-miterlimit="10" d="M502.1,196.653c-3.633-4.656-9.293-7.653-15.655-7.653
			c-5.008,0-9.579,1.856-13.07,4.917c-2.674-1.344-5.693-2.102-8.892-2.102c-8.354,0-15.496,5.162-18.426,12.469
			c5.782-4.63,13.117-7.4,21.102-7.4c1.124,0,2.235,0.056,3.332,0.163c-1.002,1.353-1.836,2.837-2.473,4.422
			c1.868-1.496,3.899-2.796,6.061-3.873c2.098,0.438,4.124,1.066,6.06,1.873c-0.913-1.17-1.954-2.234-3.102-3.174
			c3.752-1.438,7.825-2.227,12.083-2.227C493.719,194.068,498.103,194.988,502.1,196.653z"/>
		<path fill="#F8B195" stroke="#6C5B7B" stroke-miterlimit="10" d="M536.1,169.653c-3.633-4.656-9.293-7.653-15.655-7.653
			c-5.008,0-9.579,1.856-13.07,4.917c-2.674-1.344-5.693-2.102-8.892-2.102c-8.354,0-15.496,5.162-18.426,12.469
			c5.782-4.63,13.117-7.4,21.102-7.4c1.124,0,2.235,0.056,3.332,0.163c-1.002,1.353-1.836,2.837-2.473,4.422
			c1.868-1.496,3.899-2.796,6.061-3.873c2.098,0.438,4.124,1.066,6.06,1.873c-0.913-1.17-1.954-2.234-3.102-3.174
			c3.752-1.438,7.825-2.227,12.083-2.227C527.719,167.068,532.103,167.988,536.1,169.653z"/>
		<path fill="#F8B195" stroke="#6C5B7B" stroke-miterlimit="10" d="M544.1,209.653c-3.633-4.656-9.293-7.653-15.655-7.653
			c-5.008,0-9.579,1.856-13.07,4.917c-2.674-1.344-5.693-2.102-8.892-2.102c-8.354,0-15.496,5.162-18.426,12.469
			c5.782-4.63,13.117-7.4,21.102-7.4c1.124,0,2.235,0.056,3.332,0.163c-1.002,1.353-1.836,2.837-2.473,4.422
			c1.868-1.496,3.899-2.796,6.061-3.873c2.098,0.438,4.124,1.066,6.06,1.873c-0.913-1.17-1.954-2.234-3.102-3.174
			c3.752-1.438,7.825-2.227,12.083-2.227C535.719,207.068,540.103,207.988,544.1,209.653z"/>
	</g>
</g>
<g id="sea">
	<rect id="waterrrr" x="-18" y="564" fill="#355C7D" width="828" height="462"/>
	<g id="fish">
		<g>
			<g>
				<ellipse fill="#6C5B7B" cx="631.351" cy="950.522" rx="23.709" ry="11.019"/>
				<polyline fill="#6C5B7B" points="663.074,966.501 647.095,950.522 663.074,934.542 				"/>
			</g>
			<circle fill="#F67280" cx="617.66" cy="946.849" r="2.437"/>
		</g>
		<g>
			<g>
				<ellipse fill="#6C5B7B" cx="648.832" cy="904.98" rx="23.709" ry="11.019"/>
				<polyline fill="#6C5B7B" points="680.555,920.959 664.575,904.98 680.555,889 				"/>
			</g>
			<circle fill="#F67280" cx="635.141" cy="901.307" r="2.437"/>
		</g>
		<g>
			<g>
				<ellipse fill="#6C5B7B" cx="581.209" cy="912.341" rx="23.709" ry="11.019"/>
				<polyline fill="#6C5B7B" points="612.933,928.319 596.953,912.341 612.933,896.36 				"/>
			</g>
			<circle fill="#F67280" cx="567.519" cy="908.667" r="2.437"/>
		</g>
	</g>
	<g id="fisher">
		<path fill="#F67280" d="M203,857v-42.645c-1.773-8.482-9.291-14.855-18.3-14.855c-8.228,0-15.199,5.32-17.7,12.703V857H203z"/>
		<path fill="#F8B195" d="M244.638,850.735c-71.002,0-130.521-12.676-146.445-29.735c-2.734,2.929-4.193,5.986-4.193,9.133
			C94,851.599,161.443,869,244.638,869c83.195,0,150.638-17.401,150.638-38.867c0-3.146-1.459-6.204-4.192-9.133
			C375.16,838.06,315.641,850.735,244.638,850.735z"/>
		<circle fill="#F8B195" cx="185" cy="789" r="18"/>
	</g>
	<g id="pole">
		<line fill="none" stroke="#F8B195" stroke-width="2" stroke-miterlimit="10" x1="324.545" y1="750.057" x2="540" y2="879"/>
		<path fill="#C06C84" d="M200.937,824.526c4.365-40.83,55.898-73.059,118.834-73.059c0.895,0,1.787,0.009,2.678,0.022
			c2.891-1.023,5.773-2.003,8.643-2.938c-3.729-0.223-7.503-0.343-11.321-0.343c-68.409,0-123.883,36.562-124.069,81.711
			C197.386,828.119,199.133,826.32,200.937,824.526z"/>
	</g>
	<g id="waves">
		<g>
			<path fill="#6C5B7B" d="M158.103,648.914c-7.167,4.184-15.501,7.086-24.399,7.086c-24.06,0-44.017-18-47.832-40h-4.337
				c-3.747,22-23.064,39.357-46.544,39.971c0.005,0.842,0.009,1.434,0.009,2.279c0,0.158-0.001,0.189-0.002,0.348
				c23.611-0.585,43.272-17.114,48.705-39.189c5.532,22.479,25.814,39.123,50,39.123c8.804,0,17.09-2.227,24.337-6.12
				C158.057,651.246,158.077,650.069,158.103,648.914z"/>
			<path fill="#6C5B7B" d="M208.103,670.914c-7.167,4.184-15.501,7.086-24.399,7.086c-24.06,0-44.017-18-47.832-40h-4.337
				c-3.747,22-23.064,39.357-46.544,39.971c0.005,0.842,0.009,1.434,0.009,2.279c0,0.158-0.001,0.189-0.002,0.348
				c23.611-0.585,43.272-17.114,48.705-39.189c5.532,22.479,25.814,39.123,50,39.123c8.804,0,17.09-2.227,24.337-6.12
				C208.057,673.246,208.077,672.069,208.103,670.914z"/>
		</g>
		<g>
			<path fill="#6C5B7B" d="M345.103,889.914c-7.167,4.184-15.501,7.086-24.399,7.086c-24.061,0-44.017-18-47.832-40h-4.336
				c-3.747,22-23.064,39.357-46.545,39.971c0.006,0.842,0.01,1.434,0.01,2.279c0,0.158-0.002,0.189-0.002,0.348
				c23.611-0.585,43.272-17.114,48.705-39.189c5.531,22.479,25.814,39.123,50,39.123c8.804,0,17.09-2.227,24.337-6.12
				C345.057,892.246,345.076,891.069,345.103,889.914z"/>
			<path fill="#6C5B7B" d="M395.103,911.914c-7.167,4.184-15.501,7.086-24.399,7.086c-24.061,0-44.017-18-47.832-40h-4.336
				c-3.747,22-23.064,39.357-46.545,39.971c0.006,0.842,0.01,1.434,0.01,2.279c0,0.158-0.002,0.189-0.002,0.348
				c23.611-0.585,43.272-17.114,48.705-39.189c5.531,22.479,25.814,39.123,50,39.123c8.804,0,17.09-2.227,24.337-6.12
				C395.057,914.246,395.076,913.069,395.103,911.914z"/>
		</g>
		<g>
			<path fill="#6C5B7B" d="M667.103,759.914c-7.167,4.184-15.501,7.086-24.399,7.086c-24.061,0-44.017-18-47.832-40h-4.336
				c-3.747,22-23.064,39.357-46.545,39.971c0.006,0.842,0.01,1.434,0.01,2.279c0,0.158-0.002,0.189-0.002,0.348
				c23.611-0.585,43.272-17.114,48.705-39.189c5.531,22.479,25.814,39.123,50,39.123c8.804,0,17.09-2.227,24.337-6.12
				C667.057,762.246,667.076,761.069,667.103,759.914z"/>
			<path fill="#6C5B7B" d="M717.103,781.914c-7.167,4.184-15.501,7.086-24.399,7.086c-24.061,0-44.017-18-47.832-40h-4.336
				c-3.747,22-23.064,39.357-46.545,39.971c0.006,0.842,0.01,1.434,0.01,2.279c0,0.158-0.002,0.189-0.002,0.348
				c23.611-0.585,43.272-17.114,48.705-39.189c5.531,22.479,25.814,39.123,50,39.123c8.804,0,17.09-2.227,24.337-6.12
				C717.057,784.246,717.076,783.069,717.103,781.914z"/>
		</g>
	</g>
</g>
</svg>
